<svg width="8873" height="848" viewBox="0 0 8873 848" fill="none" xmlns="http://www.w3.org/2000/svg">
<path d="M0 415H211.291V830H0V415Z" fill="url(#paint0_linear_1_108)"/>
<path d="M352.291 68.89H211.291V0H0V415C0 605.9 157.736 760.695 352.291 760.695C546.846 760.695 705 605.9 705 415C705 224.1 546.846 68.475 352.082 68.475L352.291 68.89ZM352.291 553.195C274.887 553.195 211.5 490.945 211.5 414.792C211.5 338.64 274.887 276.183 352.709 276.183C430.113 276.183 493.5 338.432 493.5 414.585C493.5 490.737 430.322 552.78 352.709 552.78L352.291 553.195Z" fill="white"/>
<path d="M211.291 276.39V415C211.291 338.64 274.887 276.39 352.5 276.39H211.291Z" fill="#9AAEC1"/>
<path d="M493.288 415C493.288 491.153 429.901 553.403 352.288 553.403V760.902C546.843 760.902 704.788 606.108 704.788 415.208H493.079L493.288 415Z" fill="url(#paint1_linear_1_108)"/>
<path d="M352.288 69.306V276.806C430.529 276.806 493.288 339.056 493.288 415.209H704.579C704.579 224.309 547.68 69.5135 352.288 69.5135V69.306Z" fill="url(#paint2_linear_1_108)"/>
<g clip-path="url(#clip0_1_108)">
<g filter="url(#filter0_dii_1_108)">
<path fill-rule="evenodd" clip-rule="evenodd" d="M2313 256.627C2313 246.845 2313 237.062 2312.94 227.279C2312.89 219.038 2312.8 210.799 2312.58 202.562C2312.09 184.609 2311.03 166.502 2307.84 148.749C2304.6 130.741 2299.31 113.98 2290.98 97.6166C2282.79 81.5337 2272.09 66.8168 2259.32 54.0578C2246.56 41.2989 2231.83 30.6049 2215.75 22.4179C2199.37 14.0829 2182.59 8.79697 2164.56 5.55998C2146.8 2.37199 2128.69 1.315 2110.74 0.829997C2102.49 0.606998 2094.25 0.512998 2086.01 0.461998C2076.22 0.401999 2066.43 0.406999 2056.64 0.406999L1943 0H1858L1746.36 0.406999C1736.55 0.406999 1726.75 0.401999 1716.94 0.461998C1708.68 0.512998 1700.42 0.606998 1692.16 0.829997C1674.17 1.315 1656.01 2.37299 1638.22 5.56498C1620.16 8.80097 1603.36 14.0849 1586.96 22.4139C1570.84 30.6019 1556.08 41.2969 1543.29 54.0578C1530.5 66.8158 1519.78 81.5297 1511.57 97.6096C1503.22 113.981 1497.92 130.752 1494.67 148.77C1491.48 166.516 1490.42 184.617 1489.93 202.562C1489.71 210.8 1489.61 219.039 1489.56 227.279C1489.5 237.063 1489 249.216 1489 258.999L1489 369.089L1489 454.998L1489.51 567.427C1489.51 577.223 1489.5 587.019 1489.56 596.815C1489.61 605.067 1489.71 613.317 1489.93 621.566C1490.42 639.542 1491.48 657.675 1494.68 675.452C1497.92 693.484 1503.22 710.269 1511.57 726.653C1519.78 742.759 1530.5 757.495 1543.29 770.272C1556.08 783.049 1570.83 793.757 1586.95 801.956C1603.36 810.302 1620.17 815.595 1638.24 818.836C1656.03 822.029 1674.17 823.088 1692.16 823.573C1700.42 823.796 1708.68 823.891 1716.94 823.941C1726.75 824.001 1736.55 823.997 1746.36 823.997L1859.01 824H1944.22L2056.64 823.996C2066.43 823.996 2076.22 824.001 2086.01 823.941C2094.25 823.891 2102.49 823.796 2110.74 823.573C2128.7 823.087 2146.82 822.027 2164.58 818.832C2182.6 815.591 2199.37 810.3 2215.74 801.959C2231.83 793.761 2246.55 783.051 2259.32 770.272C2272.09 757.497 2282.79 742.763 2290.98 726.66C2299.32 710.268 2304.6 693.475 2307.84 675.431C2311.03 657.661 2312.09 639.535 2312.58 621.566C2312.8 613.316 2312.89 605.066 2312.94 596.815C2313 587.019 2313 577.223 2313 567.427C2313 567.427 2312.99 456.983 2312.99 454.998V368.999C2312.99 367.533 2313 256.627 2313 256.627Z" fill="url(#paint3_linear_1_108)"/>
<path fill-rule="evenodd" clip-rule="evenodd" d="M2313 256.627C2313 246.845 2313 237.062 2312.94 227.279C2312.89 219.038 2312.8 210.799 2312.58 202.562C2312.09 184.609 2311.03 166.502 2307.84 148.749C2304.6 130.741 2299.31 113.98 2290.98 97.6166C2282.79 81.5337 2272.09 66.8168 2259.32 54.0578C2246.56 41.2989 2231.83 30.6049 2215.75 22.4179C2199.37 14.0829 2182.59 8.79697 2164.56 5.55998C2146.8 2.37199 2128.69 1.315 2110.74 0.829997C2102.49 0.606998 2094.25 0.512998 2086.01 0.461998C2076.22 0.401999 2066.43 0.406999 2056.64 0.406999L1943 0H1858L1746.36 0.406999C1736.55 0.406999 1726.75 0.401999 1716.94 0.461998C1708.68 0.512998 1700.42 0.606998 1692.16 0.829997C1674.17 1.315 1656.01 2.37299 1638.22 5.56498C1620.16 8.80097 1603.36 14.0849 1586.96 22.4139C1570.84 30.6019 1556.08 41.2969 1543.29 54.0578C1530.5 66.8158 1519.78 81.5297 1511.57 97.6096C1503.22 113.981 1497.92 130.752 1494.67 148.77C1491.48 166.516 1490.42 184.617 1489.93 202.562C1489.71 210.8 1489.61 219.039 1489.56 227.279C1489.5 237.063 1489 249.216 1489 258.999L1489 369.089L1489 454.998L1489.51 567.427C1489.51 577.223 1489.5 587.019 1489.56 596.815C1489.61 605.067 1489.71 613.317 1489.93 621.566C1490.42 639.542 1491.48 657.675 1494.68 675.452C1497.92 693.484 1503.22 710.269 1511.57 726.653C1519.78 742.759 1530.5 757.495 1543.29 770.272C1556.08 783.049 1570.83 793.757 1586.95 801.956C1603.36 810.302 1620.17 815.595 1638.24 818.836C1656.03 822.029 1674.17 823.088 1692.16 823.573C1700.42 823.796 1708.68 823.891 1716.94 823.941C1726.75 824.001 1736.55 823.997 1746.36 823.997L1859.01 824H1944.22L2056.64 823.996C2066.43 823.996 2076.22 824.001 2086.01 823.941C2094.25 823.891 2102.49 823.796 2110.74 823.573C2128.7 823.087 2146.82 822.027 2164.58 818.832C2182.6 815.591 2199.37 810.3 2215.74 801.959C2231.83 793.761 2246.55 783.051 2259.32 770.272C2272.09 757.497 2282.79 742.763 2290.98 726.66C2299.32 710.268 2304.6 693.475 2307.84 675.431C2311.03 657.661 2312.09 639.535 2312.58 621.566C2312.8 613.316 2312.89 605.066 2312.94 596.815C2313 587.019 2313 577.223 2313 567.427C2313 567.427 2312.99 456.983 2312.99 454.998V368.999C2312.99 367.533 2313 256.627 2313 256.627Z" fill="url(#paint4_radial_1_108)" fill-opacity="0.8"/>
<path fill-rule="evenodd" clip-rule="evenodd" d="M2313 256.627C2313 246.845 2313 237.062 2312.94 227.279C2312.89 219.038 2312.8 210.799 2312.58 202.562C2312.09 184.609 2311.03 166.502 2307.84 148.749C2304.6 130.741 2299.31 113.98 2290.98 97.6166C2282.79 81.5337 2272.09 66.8168 2259.32 54.0578C2246.56 41.2989 2231.83 30.6049 2215.75 22.4179C2199.37 14.0829 2182.59 8.79697 2164.56 5.55998C2146.8 2.37199 2128.69 1.315 2110.74 0.829997C2102.49 0.606998 2094.25 0.512998 2086.01 0.461998C2076.22 0.401999 2066.43 0.406999 2056.64 0.406999L1943 0H1858L1746.36 0.406999C1736.55 0.406999 1726.75 0.401999 1716.94 0.461998C1708.68 0.512998 1700.42 0.606998 1692.16 0.829997C1674.17 1.315 1656.01 2.37299 1638.22 5.56498C1620.16 8.80097 1603.36 14.0849 1586.96 22.4139C1570.84 30.6019 1556.08 41.2969 1543.29 54.0578C1530.5 66.8158 1519.78 81.5297 1511.57 97.6096C1503.22 113.981 1497.92 130.752 1494.67 148.77C1491.48 166.516 1490.42 184.617 1489.93 202.562C1489.71 210.8 1489.61 219.039 1489.56 227.279C1489.5 237.063 1489 249.216 1489 258.999L1489 369.089L1489 454.998L1489.51 567.427C1489.51 577.223 1489.5 587.019 1489.56 596.815C1489.61 605.067 1489.71 613.317 1489.93 621.566C1490.42 639.542 1491.48 657.675 1494.68 675.452C1497.92 693.484 1503.22 710.269 1511.57 726.653C1519.78 742.759 1530.5 757.495 1543.29 770.272C1556.08 783.049 1570.83 793.757 1586.95 801.956C1603.36 810.302 1620.17 815.595 1638.24 818.836C1656.03 822.029 1674.17 823.088 1692.16 823.573C1700.42 823.796 1708.68 823.891 1716.94 823.941C1726.75 824.001 1736.55 823.997 1746.36 823.997L1859.01 824H1944.22L2056.64 823.996C2066.43 823.996 2076.22 824.001 2086.01 823.941C2094.25 823.891 2102.49 823.796 2110.74 823.573C2128.7 823.087 2146.82 822.027 2164.58 818.832C2182.6 815.591 2199.37 810.3 2215.74 801.959C2231.83 793.761 2246.55 783.051 2259.32 770.272C2272.09 757.497 2282.79 742.763 2290.98 726.66C2299.32 710.268 2304.6 693.475 2307.84 675.431C2311.03 657.661 2312.09 639.535 2312.58 621.566C2312.8 613.316 2312.89 605.066 2312.94 596.815C2313 587.019 2313 577.223 2313 567.427C2313 567.427 2312.99 456.983 2312.99 454.998V368.999C2312.99 367.533 2313 256.627 2313 256.627Z" fill="url(#paint5_radial_1_108)" fill-opacity="0.8"/>
</g>
<path fill-rule="evenodd" clip-rule="evenodd" d="M1814.78 710.128C1920.53 750.923 2122.18 719.588 2137.35 653.369C2164.72 534 1767.22 670 1775.72 553C1780.05 493.372 1928.25 459.741 2047 435.5C1996.11 406.53 1816.05 347.701 1829.55 305.133C1845.51 254.805 2000.33 275.063 2073 263C2111.27 256.647 2157.67 226.499 2145.04 176.561C2136.73 143.726 2091.27 107.707 2010.92 122.365C1979.14 128.164 1901.2 163.104 1873 179.5C1880.5 181 1880.5 181 1880.5 181C1976.21 156.168 2025.5 161 2023.84 176.561C2010.92 224.725 1768.7 186.295 1720.45 254.805C1667.51 329.965 1872.91 407.07 1914.62 419.832C1789.96 425.153 1606.57 471.553 1638.72 583.5C1682.22 735 2019.59 614.5 2014.72 663C2011.05 699.5 1882.72 725.736 1814.78 710.128Z" fill="url(#paint6_linear_1_108)"/>
<g filter="url(#filter1_d_1_108)">
<path fill-rule="evenodd" clip-rule="evenodd" d="M1802.7 694.756C1908.41 735.525 2109.97 704.21 2125.14 638.033C2152.49 518.739 1755.16 654.653 1763.66 537.727C1767.77 481.148 1925.45 455.307 2040.5 431.5C2034.2 421.778 2040.5 431.5 2034.2 421.778C1983.33 392.826 1803.97 332.558 1817.47 290.016C1833.42 239.719 1989.91 258.347 2062.54 246.292C2100.79 239.943 2145.44 211.431 2132.82 161.525C2124.52 128.71 2079.08 92.7137 1998.77 107.363C1954.31 115.472 1866.48 170.071 1866.48 170.071C1869.95 175.5 1869.95 175.5 1872.5 179.5C1924.02 169.282 2017.46 139.957 2011.67 161.524C1998.77 209.658 1756.64 171.252 1708.41 239.719C1655.5 314.832 1860.81 391.889 1902.5 404.643C1777.9 409.961 1594.59 456.331 1626.72 568.208C1670.2 719.613 2007.43 599.188 2002.56 647.658C1998.89 684.135 1870.61 710.354 1802.7 694.756Z" fill="url(#paint7_linear_1_108)" fill-opacity="0.9" shape-rendering="crispEdges"/>
<path d="M1866.48 170.071C1866.48 170.071 1954.31 115.472 1998.77 107.363C2079.08 92.7137 2124.52 128.71 2132.82 161.525C2145.44 211.431 2100.79 239.943 2062.54 246.292C1989.91 258.347 1833.42 239.719 1817.47 290.016C1803.97 332.558 1983.33 392.826 2034.2 421.778C2040.5 431.5 2034.2 421.778 2040.5 431.5C1925.45 455.307 1767.77 481.148 1763.66 537.727C1755.16 654.653 2152.49 518.739 2125.14 638.033C2109.97 704.21 1908.41 735.525 1802.7 694.756C1870.61 710.354 1998.89 684.135 2002.56 647.658C2007.43 599.188 1670.2 719.613 1626.72 568.208C1594.59 456.331 1777.9 409.961 1902.5 404.643C1860.81 391.889 1655.5 314.832 1708.41 239.719C1756.64 171.252 1998.77 209.658 2011.67 161.524C2017.46 139.957 1924.02 169.282 1872.5 179.5M1866.48 170.071C1869.95 175.5 1869.95 175.5 1872.5 179.5M1866.48 170.071L1872.5 179.5" stroke="black" shape-rendering="crispEdges"/>
</g>
<g filter="url(#filter2_i_1_108)">
<path fill-rule="evenodd" clip-rule="evenodd" d="M1808.56 705.128C1914.31 745.923 2115.96 714.588 2131.14 648.369C2158.5 529 1761 665 1769.5 548C1773.83 488.372 1921.4 456.218 2040.15 431.978C1989.26 403.007 1809.83 342.701 1823.33 300.133C1839.29 249.805 1995.84 268.444 2068.51 256.381C2106.78 250.029 2151.45 221.499 2138.82 171.561C2130.51 138.726 2085.05 102.707 2004.71 117.365C1960.23 125.479 1872.37 180.112 1872.37 180.112C1968.08 155.28 2024.36 146.412 2017.62 171.561C2004.71 219.725 1762.48 181.295 1714.23 249.805C1661.3 324.965 1866.7 402.07 1908.4 414.832C1783.75 420.153 1600.36 466.553 1632.5 578.5C1676 730 2013.37 609.5 2008.5 658C2004.83 694.5 1876.5 720.736 1808.56 705.128Z" fill="url(#paint8_linear_1_108)"/>
</g>
</g>
<path d="M2899.2 606.6C2872.8 606.6 2848.6 600.6 2826.6 588.6C2805 576.2 2787.6 558 2774.4 534C2761.6 510 2755.2 480 2755.2 444C2755.2 408 2761.4 378 2773.8 354C2786.6 330 2803.8 312 2825.4 300C2847.4 288 2872 282 2899.2 282C2930.4 282 2958 288.8 2982 302.4C3006 316 3025 335 3039 359.4C3053 383.4 3060 411.6 3060 444C3060 476.4 3053 504.8 3039 529.2C3025 553.6 3006 572.6 2982 586.2C2958 599.8 2930.4 606.6 2899.2 606.6ZM2730.6 719.4V285H2785.8V370.8L2782.2 444.6L2788.2 518.4V719.4H2730.6ZM2894.4 556.2C2914.8 556.2 2933 551.6 2949 542.4C2965.4 533.2 2978.2 520.2 2987.4 503.4C2997 486.2 3001.8 466.4 3001.8 444C3001.8 421.2 2997 401.6 2987.4 385.2C2978.2 368.4 2965.4 355.4 2949 346.2C2933 337 2914.8 332.4 2894.4 332.4C2874.4 332.4 2856.2 337 2839.8 346.2C2823.8 355.4 2811 368.4 2801.4 385.2C2792.2 401.6 2787.6 421.2 2787.6 444C2787.6 466.4 2792.2 486.2 2801.4 503.4C2811 520.2 2823.8 533.2 2839.8 542.4C2856.2 551.6 2874.4 556.2 2894.4 556.2ZM3275.78 606.6C3243.78 606.6 3215.38 599.6 3190.58 585.6C3165.78 571.6 3146.18 552.4 3131.78 528C3117.38 503.2 3110.18 475.2 3110.18 444C3110.18 412.4 3117.38 384.4 3131.78 360C3146.18 335.6 3165.78 316.6 3190.58 303C3215.38 289 3243.78 282 3275.78 282C3307.38 282 3335.58 289 3360.38 303C3385.58 316.6 3405.18 335.6 3419.18 360C3433.58 384 3440.78 412 3440.78 444C3440.78 475.6 3433.58 503.6 3419.18 528C3405.18 552.4 3385.58 571.6 3360.38 585.6C3335.58 599.6 3307.38 606.6 3275.78 606.6ZM3275.78 556.2C3296.18 556.2 3314.38 551.6 3330.38 542.4C3346.78 533.2 3359.58 520.2 3368.78 503.4C3377.98 486.2 3382.58 466.4 3382.58 444C3382.58 421.2 3377.98 401.6 3368.78 385.2C3359.58 368.4 3346.78 355.4 3330.38 346.2C3314.38 337 3296.18 332.4 3275.78 332.4C3255.38 332.4 3237.18 337 3221.18 346.2C3205.18 355.4 3192.38 368.4 3182.78 385.2C3173.18 401.6 3168.38 421.2 3168.38 444C3168.38 466.4 3173.18 486.2 3182.78 503.4C3192.38 520.2 3205.18 533.2 3221.18 542.4C3237.18 551.6 3255.38 556.2 3275.78 556.2ZM3578.85 603L3460.65 285H3515.25L3620.25 573H3594.45L3703.65 285H3752.25L3859.05 573H3833.85L3941.25 285H3992.85L3874.05 603H3818.85L3718.65 340.2H3735.45L3634.05 603H3578.85ZM4184.11 606.6C4150.11 606.6 4120.11 599.6 4094.11 585.6C4068.51 571.6 4048.51 552.4 4034.11 528C4020.11 503.6 4013.11 475.6 4013.11 444C4013.11 412.4 4019.91 384.4 4033.51 360C4047.51 335.6 4066.51 316.6 4090.51 303C4114.91 289 4142.31 282 4172.71 282C4203.51 282 4230.71 288.8 4254.31 302.4C4277.91 316 4296.31 335.2 4309.51 360C4323.11 384.4 4329.91 413 4329.91 445.8C4329.91 448.2 4329.71 451 4329.31 454.2C4329.31 457.4 4329.11 460.4 4328.71 463.2H4058.11V421.8H4298.71L4275.31 436.2C4275.71 415.8 4271.51 397.6 4262.71 381.6C4253.91 365.6 4241.71 353.2 4226.11 344.4C4210.91 335.2 4193.11 330.6 4172.71 330.6C4152.71 330.6 4134.91 335.2 4119.31 344.4C4103.71 353.2 4091.51 365.8 4082.71 382.2C4073.91 398.2 4069.51 416.6 4069.51 437.4V447C4069.51 468.2 4074.31 487.2 4083.91 504C4093.91 520.4 4107.71 533.2 4125.31 542.4C4142.91 551.6 4163.11 556.2 4185.91 556.2C4204.71 556.2 4221.71 553 4236.91 546.6C4252.51 540.2 4266.11 530.6 4277.71 517.8L4309.51 555C4295.11 571.8 4277.11 584.6 4255.51 593.4C4234.31 602.2 4210.51 606.6 4184.11 606.6ZM4409.9 603V285H4465.1V371.4L4459.7 349.8C4468.5 327.8 4483.3 311 4504.1 299.4C4524.9 287.8 4550.5 282 4580.9 282V337.8C4578.5 337.4 4576.1 337.2 4573.7 337.2C4571.7 337.2 4569.7 337.2 4567.7 337.2C4536.9 337.2 4512.5 346.4 4494.5 364.8C4476.5 383.2 4467.5 409.8 4467.5 444.6V603H4409.9ZM4773.98 606.6C4741.98 606.6 4717.18 598 4699.58 580.8C4681.98 563.6 4673.18 539 4673.18 507V215.4H4730.78V504.6C4730.78 521.8 4734.98 535 4743.38 544.2C4752.18 553.4 4764.58 558 4780.58 558C4798.58 558 4813.58 553 4825.58 543L4843.58 584.4C4834.78 592 4824.18 597.6 4811.78 601.2C4799.78 604.8 4787.18 606.6 4773.98 606.6ZM4619.18 332.4V285H4821.98V332.4H4619.18ZM5083.02 282C5109.02 282 5131.82 287 5151.42 297C5171.42 307 5187.02 322.2 5198.22 342.6C5209.42 363 5215.02 388.8 5215.02 420V603H5157.42V426.6C5157.42 395.8 5149.82 372.6 5134.62 357C5119.82 341.4 5098.82 333.6 5071.62 333.6C5051.22 333.6 5033.42 337.6 5018.22 345.6C5003.02 353.6 4991.22 365.4 4982.82 381C4974.82 396.6 4970.82 416 4970.82 439.2V603H4913.22V157.8H4970.82V370.8L4959.42 348C4969.82 327.2 4985.82 311 5007.42 299.4C5029.02 287.8 5054.22 282 5083.02 282ZM5463.22 606.6C5429.22 606.6 5399.22 599.6 5373.22 585.6C5347.62 571.6 5327.62 552.4 5313.22 528C5299.22 503.6 5292.22 475.6 5292.22 444C5292.22 412.4 5299.02 384.4 5312.62 360C5326.62 335.6 5345.62 316.6 5369.62 303C5394.02 289 5421.42 282 5451.82 282C5482.62 282 5509.82 288.8 5533.42 302.4C5557.02 316 5575.42 335.2 5588.62 360C5602.22 384.4 5609.02 413 5609.02 445.8C5609.02 448.2 5608.82 451 5608.42 454.2C5608.42 457.4 5608.22 460.4 5607.82 463.2H5337.22V421.8H5577.82L5554.42 436.2C5554.82 415.8 5550.62 397.6 5541.82 381.6C5533.02 365.6 5520.82 353.2 5505.22 344.4C5490.02 335.2 5472.22 330.6 5451.82 330.6C5431.82 330.6 5414.02 335.2 5398.42 344.4C5382.82 353.2 5370.62 365.8 5361.82 382.2C5353.02 398.2 5348.62 416.6 5348.62 437.4V447C5348.62 468.2 5353.42 487.2 5363.02 504C5373.02 520.4 5386.82 533.2 5404.42 542.4C5422.02 551.6 5442.22 556.2 5465.02 556.2C5483.82 556.2 5500.82 553 5516.02 546.6C5531.62 540.2 5545.22 530.6 5556.82 517.8L5588.62 555C5574.22 571.8 5556.22 584.6 5534.62 593.4C5513.42 602.2 5489.62 606.6 5463.22 606.6ZM5780.2 606.6C5753.8 606.6 5728.6 603 5704.6 595.8C5681 588.6 5662.4 579.8 5648.8 569.4L5672.8 523.8C5686.4 533 5703.2 540.8 5723.2 547.2C5743.2 553.6 5763.6 556.8 5784.4 556.8C5811.2 556.8 5830.4 553 5842 545.4C5854 537.8 5860 527.2 5860 513.6C5860 503.6 5856.4 495.8 5849.2 490.2C5842 484.6 5832.4 480.4 5820.4 477.6C5808.8 474.8 5795.8 472.4 5781.4 470.4C5767 468 5752.6 465.2 5738.2 462C5723.8 458.4 5710.6 453.6 5698.6 447.6C5686.6 441.2 5677 432.6 5669.8 421.8C5662.6 410.6 5659 395.8 5659 377.4C5659 358.2 5664.4 341.4 5675.2 327C5686 312.6 5701.2 301.6 5720.8 294C5740.8 286 5764.4 282 5791.6 282C5812.4 282 5833.4 284.6 5854.6 289.8C5876.2 294.6 5893.8 301.6 5907.4 310.8L5882.8 356.4C5868.4 346.8 5853.4 340.2 5837.8 336.6C5822.2 333 5806.6 331.2 5791 331.2C5765.8 331.2 5747 335.4 5734.6 343.8C5722.2 351.8 5716 362.2 5716 375C5716 385.8 5719.6 394.2 5726.8 400.2C5734.4 405.8 5744 410.2 5755.6 413.4C5767.6 416.6 5780.8 419.4 5795.2 421.8C5809.6 423.8 5824 426.6 5838.4 430.2C5852.8 433.4 5865.8 438 5877.4 444C5889.4 450 5899 458.4 5906.2 469.2C5913.8 480 5917.6 494.4 5917.6 512.4C5917.6 531.6 5912 548.2 5900.8 562.2C5889.6 576.2 5873.8 587.2 5853.4 595.2C5833 602.8 5808.6 606.6 5780.2 606.6ZM6186.98 603V535.8L6183.98 523.2V408.6C6183.98 384.2 6176.78 365.4 6162.38 352.2C6148.38 338.6 6127.18 331.8 6098.78 331.8C6079.98 331.8 6061.58 335 6043.58 341.4C6025.58 347.4 6010.38 355.6 5997.98 366L5973.98 322.8C5990.38 309.6 6009.98 299.6 6032.78 292.8C6055.98 285.6 6080.18 282 6105.38 282C6148.98 282 6182.58 292.6 6206.18 313.8C6229.78 335 6241.58 367.4 6241.58 411V603H6186.98ZM6082.58 606.6C6058.98 606.6 6038.18 602.6 6020.18 594.6C6002.58 586.6 5988.98 575.6 5979.38 561.6C5969.78 547.2 5964.98 531 5964.98 513C5964.98 495.8 5968.98 480.2 5976.98 466.2C5985.38 452.2 5998.78 441 6017.18 432.6C6035.98 424.2 6061.18 420 6092.78 420H6193.58V461.4H6095.18C6066.38 461.4 6046.98 466.2 6036.98 475.8C6026.98 485.4 6021.98 497 6021.98 510.6C6021.98 526.2 6028.18 538.8 6040.58 548.4C6052.98 557.6 6070.18 562.2 6092.18 562.2C6113.78 562.2 6132.58 557.4 6148.58 547.8C6164.98 538.2 6176.78 524.2 6183.98 505.8L6195.38 545.4C6187.78 564.2 6174.38 579.2 6155.18 590.4C6135.98 601.2 6111.78 606.6 6082.58 606.6ZM6481.98 606.6C6454.78 606.6 6430.78 601.6 6409.98 591.6C6389.58 581.6 6373.58 566.4 6361.98 546C6350.78 525.2 6345.18 499.2 6345.18 468V285H6402.78V461.4C6402.78 492.6 6410.18 516 6424.98 531.6C6440.18 547.2 6461.38 555 6488.58 555C6508.58 555 6525.98 551 6540.78 543C6555.58 534.6 6566.98 522.6 6574.98 507C6582.98 491 6586.98 471.8 6586.98 449.4V285H6644.58V603H6589.98V517.2L6598.98 540C6588.58 561.2 6572.98 577.6 6552.18 589.2C6531.38 600.8 6507.98 606.6 6481.98 606.6ZM6754.23 603V285H6809.43V371.4L6804.03 349.8C6812.83 327.8 6827.63 311 6848.43 299.4C6869.23 287.8 6894.83 282 6925.23 282V337.8C6922.83 337.4 6920.43 337.2 6918.03 337.2C6916.03 337.2 6914.03 337.2 6912.03 337.2C6881.23 337.2 6856.83 346.4 6838.83 364.8C6820.83 383.2 6811.83 409.8 6811.83 444.6V603H6754.23ZM7134.13 606.6C7106.93 606.6 7082.93 601.6 7062.13 591.6C7041.73 581.6 7025.73 566.4 7014.13 546C7002.93 525.2 6997.33 499.2 6997.33 468V285H7054.93V461.4C7054.93 492.6 7062.33 516 7077.13 531.6C7092.33 547.2 7113.53 555 7140.73 555C7160.73 555 7178.13 551 7192.93 543C7207.73 534.6 7219.13 522.6 7227.13 507C7235.13 491 7239.13 471.8 7239.13 449.4V285H7296.73V603H7242.13V517.2L7251.13 540C7240.73 561.2 7225.13 577.6 7204.33 589.2C7183.53 600.8 7160.13 606.6 7134.13 606.6ZM7497.58 606.6C7471.18 606.6 7445.98 603 7421.98 595.8C7398.38 588.6 7379.78 579.8 7366.18 569.4L7390.18 523.8C7403.78 533 7420.58 540.8 7440.58 547.2C7460.58 553.6 7480.98 556.8 7501.78 556.8C7528.58 556.8 7547.78 553 7559.38 545.4C7571.38 537.8 7577.38 527.2 7577.38 513.6C7577.38 503.6 7573.78 495.8 7566.58 490.2C7559.38 484.6 7549.78 480.4 7537.78 477.6C7526.18 474.8 7513.18 472.4 7498.78 470.4C7484.38 468 7469.98 465.2 7455.58 462C7441.18 458.4 7427.98 453.6 7415.98 447.6C7403.98 441.2 7394.38 432.6 7387.18 421.8C7379.98 410.6 7376.38 395.8 7376.38 377.4C7376.38 358.2 7381.78 341.4 7392.58 327C7403.38 312.6 7418.58 301.6 7438.18 294C7458.18 286 7481.78 282 7508.98 282C7529.78 282 7550.78 284.6 7571.98 289.8C7593.58 294.6 7611.18 301.6 7624.78 310.8L7600.18 356.4C7585.78 346.8 7570.78 340.2 7555.18 336.6C7539.58 333 7523.98 331.2 7508.38 331.2C7483.18 331.2 7464.38 335.4 7451.98 343.8C7439.58 351.8 7433.38 362.2 7433.38 375C7433.38 385.8 7436.98 394.2 7444.18 400.2C7451.78 405.8 7461.38 410.2 7472.98 413.4C7484.98 416.6 7498.18 419.4 7512.58 421.8C7526.98 423.8 7541.38 426.6 7555.78 430.2C7570.18 433.4 7583.18 438 7594.78 444C7606.78 450 7616.38 458.4 7623.58 469.2C7631.18 480 7634.98 494.4 7634.98 512.4C7634.98 531.6 7629.38 548.2 7618.18 562.2C7606.98 576.2 7591.18 587.2 7570.78 595.2C7550.38 602.8 7525.98 606.6 7497.58 606.6ZM7720.77 606.6C7709.57 606.6 7699.97 602.8 7691.97 595.2C7683.97 587.2 7679.97 577.2 7679.97 565.2C7679.97 553.2 7683.97 543.4 7691.97 535.8C7699.97 528.2 7709.57 524.4 7720.77 524.4C7731.57 524.4 7740.77 528.2 7748.37 535.8C7756.37 543.4 7760.37 553.2 7760.37 565.2C7760.37 577.2 7756.37 587.2 7748.37 595.2C7740.77 602.8 7731.57 606.6 7720.77 606.6ZM7977.47 606.6C7943.47 606.6 7913.47 599.6 7887.47 585.6C7861.87 571.6 7841.87 552.4 7827.47 528C7813.47 503.6 7806.47 475.6 7806.47 444C7806.47 412.4 7813.27 384.4 7826.87 360C7840.87 335.6 7859.87 316.6 7883.87 303C7908.27 289 7935.67 282 7966.07 282C7996.87 282 8024.07 288.8 8047.67 302.4C8071.27 316 8089.67 335.2 8102.87 360C8116.47 384.4 8123.27 413 8123.27 445.8C8123.27 448.2 8123.07 451 8122.67 454.2C8122.67 457.4 8122.47 460.4 8122.07 463.2H7851.47V421.8H8092.07L8068.67 436.2C8069.07 415.8 8064.87 397.6 8056.07 381.6C8047.27 365.6 8035.07 353.2 8019.47 344.4C8004.27 335.2 7986.47 330.6 7966.07 330.6C7946.07 330.6 7928.27 335.2 7912.67 344.4C7897.07 353.2 7884.87 365.8 7876.07 382.2C7867.27 398.2 7862.87 416.6 7862.87 437.4V447C7862.87 468.2 7867.67 487.2 7877.27 504C7887.27 520.4 7901.07 533.2 7918.67 542.4C7936.27 551.6 7956.47 556.2 7979.27 556.2C7998.07 556.2 8015.07 553 8030.27 546.6C8045.87 540.2 8059.47 530.6 8071.07 517.8L8102.87 555C8088.47 571.8 8070.47 584.6 8048.87 593.4C8027.67 602.2 8003.87 606.6 7977.47 606.6ZM8203.26 603V157.8H8260.86V603H8203.26Z" fill="white"/>
<path d="M1067.4 542.4V279.6H1117.8V542.4H1067.4ZM958.2 435V387.6H1227V435H958.2Z" fill="white"/>
<defs>
<filter id="filter0_dii_1_108" x="1479" y="-4" width="844" height="853" filterUnits="userSpaceOnUse" color-interpolation-filters="sRGB">
<feFlood flood-opacity="0" result="BackgroundImageFix"/>
<feColorMatrix in="SourceAlpha" type="matrix" values="0 0 0 0 0 0 0 0 0 0 0 0 0 0 0 0 0 0 127 0" result="hardAlpha"/>
<feOffset dy="15"/>
<feGaussianBlur stdDeviation="5"/>
<feColorMatrix type="matrix" values="0 0 0 0 0 0 0 0 0 0 0 0 0 0 0 0 0 0 0.25 0"/>
<feBlend mode="normal" in2="BackgroundImageFix" result="effect1_dropShadow_1_108"/>
<feBlend mode="normal" in="SourceGraphic" in2="effect1_dropShadow_1_108" result="shape"/>
<feColorMatrix in="SourceAlpha" type="matrix" values="0 0 0 0 0 0 0 0 0 0 0 0 0 0 0 0 0 0 127 0" result="hardAlpha"/>
<feOffset dy="-7"/>
<feGaussianBlur stdDeviation="2"/>
<feComposite in2="hardAlpha" operator="arithmetic" k2="-1" k3="1"/>
<feColorMatrix type="matrix" values="0 0 0 0 0.633058 0 0 0 0 0.517292 0 0 0 0 0.782708 0 0 0 0.62 0"/>
<feBlend mode="normal" in2="shape" result="effect2_innerShadow_1_108"/>
<feColorMatrix in="SourceAlpha" type="matrix" values="0 0 0 0 0 0 0 0 0 0 0 0 0 0 0 0 0 0 127 0" result="hardAlpha"/>
<feOffset dy="6"/>
<feGaussianBlur stdDeviation="2"/>
<feComposite in2="hardAlpha" operator="arithmetic" k2="-1" k3="1"/>
<feColorMatrix type="matrix" values="0 0 0 0 0.890812 0 0 0 0 0.886111 0 0 0 0 0.947222 0 0 0 0.4 0"/>
<feBlend mode="normal" in2="effect2_innerShadow_1_108" result="effect3_innerShadow_1_108"/>
</filter>
<filter id="filter1_d_1_108" x="1618.5" y="103.501" width="521" height="617.999" filterUnits="userSpaceOnUse" color-interpolation-filters="sRGB">
<feFlood flood-opacity="0" result="BackgroundImageFix"/>
<feColorMatrix in="SourceAlpha" type="matrix" values="0 0 0 0 0 0 0 0 0 0 0 0 0 0 0 0 0 0 127 0" result="hardAlpha"/>
<feOffset dy="4"/>
<feGaussianBlur stdDeviation="2"/>
<feComposite in2="hardAlpha" operator="out"/>
<feColorMatrix type="matrix" values="0 0 0 0 0 0 0 0 0 0 0 0 0 0 0 0 0 0 0.25 0"/>
<feBlend mode="normal" in2="BackgroundImageFix" result="effect1_dropShadow_1_108"/>
<feBlend mode="normal" in="SourceGraphic" in2="effect1_dropShadow_1_108" result="shape"/>
</filter>
<filter id="filter2_i_1_108" x="1628.78" y="114" width="512.218" height="613.383" filterUnits="userSpaceOnUse" color-interpolation-filters="sRGB">
<feFlood flood-opacity="0" result="BackgroundImageFix"/>
<feBlend mode="normal" in="SourceGraphic" in2="BackgroundImageFix" result="shape"/>
<feColorMatrix in="SourceAlpha" type="matrix" values="0 0 0 0 0 0 0 0 0 0 0 0 0 0 0 0 0 0 127 0" result="hardAlpha"/>
<feOffset dy="6"/>
<feGaussianBlur stdDeviation="2"/>
<feComposite in2="hardAlpha" operator="arithmetic" k2="-1" k3="1"/>
<feColorMatrix type="matrix" values="0 0 0 0 0 0 0 0 0 0 0 0 0 0 0 0 0 0 0.25 0"/>
<feBlend mode="normal" in2="shape" result="effect1_innerShadow_1_108"/>
</filter>
<linearGradient id="paint0_linear_1_108" x1="26.1498" y1="839.338" x2="183.072" y2="404.84" gradientUnits="userSpaceOnUse">
<stop stop-color="white"/>
<stop offset="0.5" stop-color="#B0C5DD"/>
</linearGradient>
<linearGradient id="paint1_linear_1_108" x1="528.643" y1="760.902" x2="528.643" y2="415.207" gradientUnits="userSpaceOnUse">
<stop stop-color="white"/>
<stop offset="0.58" stop-color="#FCFDFF"/>
<stop offset="0.76" stop-color="#F4F8FF"/>
<stop offset="1" stop-color="#E0EEFF"/>
</linearGradient>
<linearGradient id="paint2_linear_1_108" x1="528.643" y1="415.209" x2="528.643" y2="69.306" gradientUnits="userSpaceOnUse">
<stop stop-color="#E0EEFF"/>
<stop offset="1" stop-color="#B0C5DD"/>
</linearGradient>
<linearGradient id="paint3_linear_1_108" x1="1901" y1="43.5" x2="1901" y2="824" gradientUnits="userSpaceOnUse">
<stop stop-color="#8381C5"/>
<stop offset="1" stop-color="#5350AF"/>
</linearGradient>
<radialGradient id="paint4_radial_1_108" cx="0" cy="0" r="1" gradientUnits="userSpaceOnUse" gradientTransform="translate(2395.5 130.5) rotate(146.242) scale(1401.87 2046.01)">
<stop stop-color="#F98A8A" stop-opacity="0.78"/>
<stop offset="0.359375" stop-color="#FA9696" stop-opacity="0.564375"/>
<stop offset="1" stop-color="white" stop-opacity="0"/>
</radialGradient>
<radialGradient id="paint5_radial_1_108" cx="0" cy="0" r="1" gradientUnits="userSpaceOnUse" gradientTransform="translate(1901 -244) rotate(90) scale(1068 1068)">
<stop stop-color="#AFADDA"/>
<stop offset="0.860487" stop-color="#7E55B3" stop-opacity="0.996078"/>
</radialGradient>
<linearGradient id="paint6_linear_1_108" x1="1896.22" y1="119" x2="1896.22" y2="732" gradientUnits="userSpaceOnUse">
<stop offset="0.00978793" stop-color="#F0EFF8" stop-opacity="0.28"/>
<stop offset="1" stop-color="#F0EFF8" stop-opacity="0.1"/>
</linearGradient>
<linearGradient id="paint7_linear_1_108" x1="1884.11" y1="104" x2="1884.11" y2="716.614" gradientUnits="userSpaceOnUse">
<stop stop-color="#5653B0"/>
<stop offset="1" stop-color="#5653B0" stop-opacity="0.21"/>
</linearGradient>
<linearGradient id="paint8_linear_1_108" x1="1890" y1="114" x2="1890" y2="727" gradientUnits="userSpaceOnUse">
<stop stop-color="#F0EFF8"/>
<stop offset="1" stop-color="#E3E2F2"/>
</linearGradient>
<clipPath id="clip0_1_108">
<rect width="844" height="844" fill="white" transform="translate(1479)"/>
</clipPath>
</defs>
</svg>
