<svg width="8873" height="858" viewBox="0 0 8873 858" fill="none" xmlns="http://www.w3.org/2000/svg">
<g clip-path="url(#clip0_1_110)">
<g filter="url(#filter0_dii_1_110)">
<path fill-rule="evenodd" clip-rule="evenodd" d="M2313 266.627C2313 256.845 2313 247.062 2312.94 237.279C2312.89 229.038 2312.8 220.799 2312.58 212.562C2312.09 194.609 2311.03 176.502 2307.84 158.749C2304.6 140.741 2299.31 123.98 2290.98 107.617C2282.79 91.5337 2272.09 76.8168 2259.32 64.0578C2246.56 51.2989 2231.83 40.6049 2215.75 32.4179C2199.37 24.0829 2182.59 18.797 2164.56 15.56C2146.8 12.372 2128.69 11.315 2110.74 10.83C2102.49 10.607 2094.25 10.513 2086.01 10.462C2076.22 10.402 2066.43 10.407 2056.64 10.407L1943 10H1858L1746.36 10.407C1736.55 10.407 1726.75 10.402 1716.94 10.462C1708.68 10.513 1700.42 10.607 1692.16 10.83C1674.17 11.315 1656.01 12.373 1638.22 15.565C1620.16 18.801 1603.36 24.0849 1586.96 32.4139C1570.84 40.6019 1556.08 51.2969 1543.29 64.0578C1530.5 76.8158 1519.78 91.5297 1511.57 107.61C1503.22 123.981 1497.92 140.752 1494.67 158.77C1491.48 176.516 1490.42 194.617 1489.93 212.562C1489.71 220.8 1489.61 229.039 1489.56 237.279C1489.5 247.063 1489 259.216 1489 268.999L1489 379.089L1489 464.998L1489.51 577.427C1489.51 587.223 1489.5 597.019 1489.56 606.815C1489.61 615.067 1489.71 623.317 1489.93 631.566C1490.42 649.542 1491.48 667.675 1494.68 685.452C1497.92 703.484 1503.22 720.269 1511.57 736.653C1519.78 752.759 1530.5 767.495 1543.29 780.272C1556.08 793.049 1570.83 803.757 1586.95 811.956C1603.36 820.302 1620.17 825.595 1638.24 828.836C1656.03 832.029 1674.17 833.088 1692.16 833.573C1700.42 833.796 1708.68 833.891 1716.94 833.941C1726.75 834.001 1736.55 833.997 1746.36 833.997L1859.01 834H1944.22L2056.64 833.996C2066.43 833.996 2076.22 834.001 2086.01 833.941C2094.25 833.891 2102.49 833.796 2110.74 833.573C2128.7 833.087 2146.82 832.027 2164.58 828.832C2182.6 825.591 2199.37 820.3 2215.74 811.959C2231.83 803.761 2246.55 793.051 2259.32 780.272C2272.09 767.497 2282.79 752.763 2290.98 736.66C2299.32 720.268 2304.6 703.475 2307.84 685.431C2311.03 667.661 2312.09 649.535 2312.58 631.566C2312.8 623.316 2312.89 615.066 2312.94 606.815C2313 597.019 2313 587.223 2313 577.427C2313 577.427 2312.99 466.983 2312.99 464.998V378.999C2312.99 377.533 2313 266.627 2313 266.627Z" fill="url(#paint0_linear_1_110)"/>
<path fill-rule="evenodd" clip-rule="evenodd" d="M2313 266.627C2313 256.845 2313 247.062 2312.94 237.279C2312.89 229.038 2312.8 220.799 2312.58 212.562C2312.09 194.609 2311.03 176.502 2307.84 158.749C2304.6 140.741 2299.31 123.98 2290.98 107.617C2282.79 91.5337 2272.09 76.8168 2259.32 64.0578C2246.56 51.2989 2231.83 40.6049 2215.75 32.4179C2199.37 24.0829 2182.59 18.797 2164.56 15.56C2146.8 12.372 2128.69 11.315 2110.74 10.83C2102.49 10.607 2094.25 10.513 2086.01 10.462C2076.22 10.402 2066.43 10.407 2056.64 10.407L1943 10H1858L1746.36 10.407C1736.55 10.407 1726.75 10.402 1716.94 10.462C1708.68 10.513 1700.42 10.607 1692.16 10.83C1674.17 11.315 1656.01 12.373 1638.22 15.565C1620.16 18.801 1603.36 24.0849 1586.96 32.4139C1570.84 40.6019 1556.08 51.2969 1543.29 64.0578C1530.5 76.8158 1519.78 91.5297 1511.57 107.61C1503.22 123.981 1497.92 140.752 1494.67 158.77C1491.48 176.516 1490.42 194.617 1489.93 212.562C1489.71 220.8 1489.61 229.039 1489.56 237.279C1489.5 247.063 1489 259.216 1489 268.999L1489 379.089L1489 464.998L1489.51 577.427C1489.51 587.223 1489.5 597.019 1489.56 606.815C1489.61 615.067 1489.71 623.317 1489.93 631.566C1490.42 649.542 1491.48 667.675 1494.68 685.452C1497.92 703.484 1503.22 720.269 1511.57 736.653C1519.78 752.759 1530.5 767.495 1543.29 780.272C1556.08 793.049 1570.83 803.757 1586.95 811.956C1603.36 820.302 1620.17 825.595 1638.24 828.836C1656.03 832.029 1674.17 833.088 1692.16 833.573C1700.42 833.796 1708.68 833.891 1716.94 833.941C1726.75 834.001 1736.55 833.997 1746.36 833.997L1859.01 834H1944.22L2056.64 833.996C2066.43 833.996 2076.22 834.001 2086.01 833.941C2094.25 833.891 2102.49 833.796 2110.74 833.573C2128.7 833.087 2146.82 832.027 2164.58 828.832C2182.6 825.591 2199.37 820.3 2215.74 811.959C2231.83 803.761 2246.55 793.051 2259.32 780.272C2272.09 767.497 2282.79 752.763 2290.98 736.66C2299.32 720.268 2304.6 703.475 2307.84 685.431C2311.03 667.661 2312.09 649.535 2312.58 631.566C2312.8 623.316 2312.89 615.066 2312.94 606.815C2313 597.019 2313 587.223 2313 577.427C2313 577.427 2312.99 466.983 2312.99 464.998V378.999C2312.99 377.533 2313 266.627 2313 266.627Z" fill="url(#paint1_radial_1_110)" fill-opacity="0.8"/>
<path fill-rule="evenodd" clip-rule="evenodd" d="M2313 266.627C2313 256.845 2313 247.062 2312.94 237.279C2312.89 229.038 2312.8 220.799 2312.58 212.562C2312.09 194.609 2311.03 176.502 2307.84 158.749C2304.6 140.741 2299.31 123.98 2290.98 107.617C2282.79 91.5337 2272.09 76.8168 2259.32 64.0578C2246.56 51.2989 2231.83 40.6049 2215.75 32.4179C2199.37 24.0829 2182.59 18.797 2164.56 15.56C2146.8 12.372 2128.69 11.315 2110.74 10.83C2102.49 10.607 2094.25 10.513 2086.01 10.462C2076.22 10.402 2066.43 10.407 2056.64 10.407L1943 10H1858L1746.36 10.407C1736.55 10.407 1726.75 10.402 1716.94 10.462C1708.68 10.513 1700.42 10.607 1692.16 10.83C1674.17 11.315 1656.01 12.373 1638.22 15.565C1620.16 18.801 1603.36 24.0849 1586.96 32.4139C1570.84 40.6019 1556.08 51.2969 1543.29 64.0578C1530.5 76.8158 1519.78 91.5297 1511.57 107.61C1503.22 123.981 1497.92 140.752 1494.67 158.77C1491.48 176.516 1490.42 194.617 1489.93 212.562C1489.71 220.8 1489.61 229.039 1489.56 237.279C1489.5 247.063 1489 259.216 1489 268.999L1489 379.089L1489 464.998L1489.51 577.427C1489.51 587.223 1489.5 597.019 1489.56 606.815C1489.61 615.067 1489.71 623.317 1489.93 631.566C1490.42 649.542 1491.48 667.675 1494.68 685.452C1497.92 703.484 1503.22 720.269 1511.57 736.653C1519.78 752.759 1530.5 767.495 1543.29 780.272C1556.08 793.049 1570.83 803.757 1586.95 811.956C1603.36 820.302 1620.17 825.595 1638.24 828.836C1656.03 832.029 1674.17 833.088 1692.16 833.573C1700.42 833.796 1708.68 833.891 1716.94 833.941C1726.75 834.001 1736.55 833.997 1746.36 833.997L1859.01 834H1944.22L2056.64 833.996C2066.43 833.996 2076.22 834.001 2086.01 833.941C2094.25 833.891 2102.49 833.796 2110.74 833.573C2128.7 833.087 2146.82 832.027 2164.58 828.832C2182.6 825.591 2199.37 820.3 2215.74 811.959C2231.83 803.761 2246.55 793.051 2259.32 780.272C2272.09 767.497 2282.79 752.763 2290.98 736.66C2299.32 720.268 2304.6 703.475 2307.84 685.431C2311.03 667.661 2312.09 649.535 2312.58 631.566C2312.8 623.316 2312.89 615.066 2312.94 606.815C2313 597.019 2313 587.223 2313 577.427C2313 577.427 2312.99 466.983 2312.99 464.998V378.999C2312.99 377.533 2313 266.627 2313 266.627Z" fill="url(#paint2_radial_1_110)" fill-opacity="0.8"/>
</g>
<path fill-rule="evenodd" clip-rule="evenodd" d="M1814.78 720.128C1920.53 760.923 2122.18 729.588 2137.35 663.369C2164.72 544 1767.22 680 1775.72 563C1780.05 503.372 1928.25 469.741 2047 445.5C1996.11 416.53 1816.05 357.701 1829.55 315.133C1845.51 264.805 2000.33 285.063 2073 273C2111.27 266.647 2157.67 236.499 2145.04 186.561C2136.73 153.726 2091.27 117.707 2010.92 132.365C1979.14 138.164 1901.2 173.104 1873 189.5C1880.5 191 1880.5 191 1880.5 191C1976.21 166.168 2025.5 171 2023.84 186.561C2010.92 234.725 1768.7 196.295 1720.45 264.805C1667.51 339.965 1872.91 417.07 1914.62 429.832C1789.96 435.153 1606.57 481.553 1638.72 593.5C1682.22 745 2019.59 624.5 2014.72 673C2011.05 709.5 1882.72 735.736 1814.78 720.128Z" fill="url(#paint3_linear_1_110)"/>
<g filter="url(#filter1_d_1_110)">
<path fill-rule="evenodd" clip-rule="evenodd" d="M1802.7 704.756C1908.41 745.525 2109.97 714.21 2125.14 648.033C2152.49 528.739 1755.16 664.653 1763.66 547.727C1767.77 491.148 1925.45 465.307 2040.5 441.5C2034.2 431.778 2040.5 441.5 2034.2 431.778C1983.33 402.826 1803.97 342.558 1817.47 300.016C1833.42 249.719 1989.91 268.347 2062.54 256.292C2100.79 249.943 2145.44 221.431 2132.82 171.525C2124.52 138.71 2079.08 102.714 1998.77 117.363C1954.31 125.472 1866.48 180.071 1866.48 180.071C1869.95 185.5 1869.95 185.5 1872.5 189.5C1924.02 179.282 2017.46 149.957 2011.67 171.524C1998.77 219.658 1756.64 181.252 1708.41 249.719C1655.5 324.832 1860.81 401.889 1902.5 414.643C1777.9 419.961 1594.59 466.331 1626.72 578.208C1670.2 729.613 2007.43 609.188 2002.56 657.658C1998.89 694.135 1870.61 720.354 1802.7 704.756Z" fill="url(#paint4_linear_1_110)" fill-opacity="0.9" shape-rendering="crispEdges"/>
<path d="M1866.48 180.071C1866.48 180.071 1954.31 125.472 1998.77 117.363C2079.08 102.714 2124.52 138.71 2132.82 171.525C2145.44 221.431 2100.79 249.943 2062.54 256.292C1989.91 268.347 1833.42 249.719 1817.47 300.016C1803.97 342.558 1983.33 402.826 2034.2 431.778C2040.5 441.5 2034.2 431.778 2040.5 441.5C1925.45 465.307 1767.77 491.148 1763.66 547.727C1755.16 664.653 2152.49 528.739 2125.14 648.033C2109.97 714.21 1908.41 745.525 1802.7 704.756C1870.61 720.354 1998.89 694.135 2002.56 657.658C2007.43 609.188 1670.2 729.613 1626.72 578.208C1594.59 466.331 1777.9 419.961 1902.5 414.643C1860.81 401.889 1655.5 324.832 1708.41 249.719C1756.64 181.252 1998.77 219.658 2011.67 171.524C2017.46 149.957 1924.02 179.282 1872.5 189.5M1866.48 180.071C1869.95 185.5 1869.95 185.5 1872.5 189.5M1866.48 180.071L1872.5 189.5" stroke="black" shape-rendering="crispEdges"/>
</g>
<g filter="url(#filter2_i_1_110)">
<path fill-rule="evenodd" clip-rule="evenodd" d="M1808.56 715.128C1914.31 755.923 2115.96 724.588 2131.14 658.369C2158.5 539 1761 675 1769.5 558C1773.83 498.372 1921.4 466.218 2040.15 441.978C1989.26 413.007 1809.83 352.701 1823.33 310.133C1839.29 259.805 1995.84 278.444 2068.51 266.381C2106.78 260.029 2151.45 231.499 2138.82 181.561C2130.51 148.726 2085.05 112.707 2004.71 127.365C1960.23 135.479 1872.37 190.112 1872.37 190.112C1968.08 165.28 2024.36 156.412 2017.62 181.561C2004.71 229.725 1762.48 191.295 1714.23 259.805C1661.3 334.965 1866.7 412.07 1908.4 424.832C1783.75 430.153 1600.36 476.553 1632.5 588.5C1676 740 2013.37 619.5 2008.5 668C2004.83 704.5 1876.5 730.736 1808.56 715.128Z" fill="url(#paint5_linear_1_110)"/>
</g>
</g>
<path d="M2899.2 616.6C2872.8 616.6 2848.6 610.6 2826.6 598.6C2805 586.2 2787.6 568 2774.4 544C2761.6 520 2755.2 490 2755.2 454C2755.2 418 2761.4 388 2773.8 364C2786.6 340 2803.8 322 2825.4 310C2847.4 298 2872 292 2899.2 292C2930.4 292 2958 298.8 2982 312.4C3006 326 3025 345 3039 369.4C3053 393.4 3060 421.6 3060 454C3060 486.4 3053 514.8 3039 539.2C3025 563.6 3006 582.6 2982 596.2C2958 609.8 2930.4 616.6 2899.2 616.6ZM2730.6 729.4V295H2785.8V380.8L2782.2 454.6L2788.2 528.4V729.4H2730.6ZM2894.4 566.2C2914.8 566.2 2933 561.6 2949 552.4C2965.4 543.2 2978.2 530.2 2987.4 513.4C2997 496.2 3001.8 476.4 3001.8 454C3001.8 431.2 2997 411.6 2987.4 395.2C2978.2 378.4 2965.4 365.4 2949 356.2C2933 347 2914.8 342.4 2894.4 342.4C2874.4 342.4 2856.2 347 2839.8 356.2C2823.8 365.4 2811 378.4 2801.4 395.2C2792.2 411.6 2787.6 431.2 2787.6 454C2787.6 476.4 2792.2 496.2 2801.4 513.4C2811 530.2 2823.8 543.2 2839.8 552.4C2856.2 561.6 2874.4 566.2 2894.4 566.2ZM3275.78 616.6C3243.78 616.6 3215.38 609.6 3190.58 595.6C3165.78 581.6 3146.18 562.4 3131.78 538C3117.38 513.2 3110.18 485.2 3110.18 454C3110.18 422.4 3117.38 394.4 3131.78 370C3146.18 345.6 3165.78 326.6 3190.58 313C3215.38 299 3243.78 292 3275.78 292C3307.38 292 3335.58 299 3360.38 313C3385.58 326.6 3405.18 345.6 3419.18 370C3433.58 394 3440.78 422 3440.78 454C3440.78 485.6 3433.58 513.6 3419.18 538C3405.18 562.4 3385.58 581.6 3360.38 595.6C3335.58 609.6 3307.38 616.6 3275.78 616.6ZM3275.78 566.2C3296.18 566.2 3314.38 561.6 3330.38 552.4C3346.78 543.2 3359.58 530.2 3368.78 513.4C3377.98 496.2 3382.58 476.4 3382.58 454C3382.58 431.2 3377.98 411.6 3368.78 395.2C3359.58 378.4 3346.78 365.4 3330.38 356.2C3314.38 347 3296.18 342.4 3275.78 342.4C3255.38 342.4 3237.18 347 3221.18 356.2C3205.18 365.4 3192.38 378.4 3182.78 395.2C3173.18 411.6 3168.38 431.2 3168.38 454C3168.38 476.4 3173.18 496.2 3182.78 513.4C3192.38 530.2 3205.18 543.2 3221.18 552.4C3237.18 561.6 3255.38 566.2 3275.78 566.2ZM3578.85 613L3460.65 295H3515.25L3620.25 583H3594.45L3703.65 295H3752.25L3859.05 583H3833.85L3941.25 295H3992.85L3874.05 613H3818.85L3718.65 350.2H3735.45L3634.05 613H3578.85ZM4184.11 616.6C4150.11 616.6 4120.11 609.6 4094.11 595.6C4068.51 581.6 4048.51 562.4 4034.11 538C4020.11 513.6 4013.11 485.6 4013.11 454C4013.11 422.4 4019.91 394.4 4033.51 370C4047.51 345.6 4066.51 326.6 4090.51 313C4114.91 299 4142.31 292 4172.71 292C4203.51 292 4230.71 298.8 4254.31 312.4C4277.91 326 4296.31 345.2 4309.51 370C4323.11 394.4 4329.91 423 4329.91 455.8C4329.91 458.2 4329.71 461 4329.31 464.2C4329.31 467.4 4329.11 470.4 4328.71 473.2H4058.11V431.8H4298.71L4275.31 446.2C4275.71 425.8 4271.51 407.6 4262.71 391.6C4253.91 375.6 4241.71 363.2 4226.11 354.4C4210.91 345.2 4193.11 340.6 4172.71 340.6C4152.71 340.6 4134.91 345.2 4119.31 354.4C4103.71 363.2 4091.51 375.8 4082.71 392.2C4073.91 408.2 4069.51 426.6 4069.51 447.4V457C4069.51 478.2 4074.31 497.2 4083.91 514C4093.91 530.4 4107.71 543.2 4125.31 552.4C4142.91 561.6 4163.11 566.2 4185.91 566.2C4204.71 566.2 4221.71 563 4236.91 556.6C4252.51 550.2 4266.11 540.6 4277.71 527.8L4309.51 565C4295.11 581.8 4277.11 594.6 4255.51 603.4C4234.31 612.2 4210.51 616.6 4184.11 616.6ZM4409.9 613V295H4465.1V381.4L4459.7 359.8C4468.5 337.8 4483.3 321 4504.1 309.4C4524.9 297.8 4550.5 292 4580.9 292V347.8C4578.5 347.4 4576.1 347.2 4573.7 347.2C4571.7 347.2 4569.7 347.2 4567.7 347.2C4536.9 347.2 4512.5 356.4 4494.5 374.8C4476.5 393.2 4467.5 419.8 4467.5 454.6V613H4409.9ZM4773.98 616.6C4741.98 616.6 4717.18 608 4699.58 590.8C4681.98 573.6 4673.18 549 4673.18 517V225.4H4730.78V514.6C4730.78 531.8 4734.98 545 4743.38 554.2C4752.18 563.4 4764.58 568 4780.58 568C4798.58 568 4813.58 563 4825.58 553L4843.58 594.4C4834.78 602 4824.18 607.6 4811.78 611.2C4799.78 614.8 4787.18 616.6 4773.98 616.6ZM4619.18 342.4V295H4821.98V342.4H4619.18ZM5083.02 292C5109.02 292 5131.82 297 5151.42 307C5171.42 317 5187.02 332.2 5198.22 352.6C5209.42 373 5215.02 398.8 5215.02 430V613H5157.42V436.6C5157.42 405.8 5149.82 382.6 5134.62 367C5119.82 351.4 5098.82 343.6 5071.62 343.6C5051.22 343.6 5033.42 347.6 5018.22 355.6C5003.02 363.6 4991.22 375.4 4982.82 391C4974.82 406.6 4970.82 426 4970.82 449.2V613H4913.22V167.8H4970.82V380.8L4959.42 358C4969.82 337.2 4985.82 321 5007.42 309.4C5029.02 297.8 5054.22 292 5083.02 292ZM5463.22 616.6C5429.22 616.6 5399.22 609.6 5373.22 595.6C5347.62 581.6 5327.62 562.4 5313.22 538C5299.22 513.6 5292.22 485.6 5292.22 454C5292.22 422.4 5299.02 394.4 5312.62 370C5326.62 345.6 5345.62 326.6 5369.62 313C5394.02 299 5421.42 292 5451.82 292C5482.62 292 5509.82 298.8 5533.42 312.4C5557.02 326 5575.42 345.2 5588.62 370C5602.22 394.4 5609.02 423 5609.02 455.8C5609.02 458.2 5608.82 461 5608.42 464.2C5608.42 467.4 5608.22 470.4 5607.82 473.2H5337.22V431.8H5577.82L5554.42 446.2C5554.82 425.8 5550.62 407.6 5541.82 391.6C5533.02 375.6 5520.82 363.2 5505.22 354.4C5490.02 345.2 5472.22 340.6 5451.82 340.6C5431.82 340.6 5414.02 345.2 5398.42 354.4C5382.82 363.2 5370.62 375.8 5361.82 392.2C5353.02 408.2 5348.62 426.6 5348.62 447.4V457C5348.62 478.2 5353.42 497.2 5363.02 514C5373.02 530.4 5386.82 543.2 5404.42 552.4C5422.02 561.6 5442.22 566.2 5465.02 566.2C5483.82 566.2 5500.82 563 5516.02 556.6C5531.62 550.2 5545.22 540.6 5556.82 527.8L5588.62 565C5574.22 581.8 5556.22 594.6 5534.62 603.4C5513.42 612.2 5489.62 616.6 5463.22 616.6ZM5780.2 616.6C5753.8 616.6 5728.6 613 5704.6 605.8C5681 598.6 5662.4 589.8 5648.8 579.4L5672.8 533.8C5686.4 543 5703.2 550.8 5723.2 557.2C5743.2 563.6 5763.6 566.8 5784.4 566.8C5811.2 566.8 5830.4 563 5842 555.4C5854 547.8 5860 537.2 5860 523.6C5860 513.6 5856.4 505.8 5849.2 500.2C5842 494.6 5832.4 490.4 5820.4 487.6C5808.8 484.8 5795.8 482.4 5781.4 480.4C5767 478 5752.6 475.2 5738.2 472C5723.8 468.4 5710.6 463.6 5698.6 457.6C5686.6 451.2 5677 442.6 5669.8 431.8C5662.6 420.6 5659 405.8 5659 387.4C5659 368.2 5664.4 351.4 5675.2 337C5686 322.6 5701.2 311.6 5720.8 304C5740.8 296 5764.4 292 5791.6 292C5812.4 292 5833.4 294.6 5854.6 299.8C5876.2 304.6 5893.8 311.6 5907.4 320.8L5882.8 366.4C5868.4 356.8 5853.4 350.2 5837.8 346.6C5822.2 343 5806.6 341.2 5791 341.2C5765.8 341.2 5747 345.4 5734.6 353.8C5722.2 361.8 5716 372.2 5716 385C5716 395.8 5719.6 404.2 5726.8 410.2C5734.4 415.8 5744 420.2 5755.6 423.4C5767.6 426.6 5780.8 429.4 5795.2 431.8C5809.6 433.8 5824 436.6 5838.4 440.2C5852.8 443.4 5865.8 448 5877.4 454C5889.4 460 5899 468.4 5906.2 479.2C5913.8 490 5917.6 504.4 5917.6 522.4C5917.6 541.6 5912 558.2 5900.8 572.2C5889.6 586.2 5873.8 597.2 5853.4 605.2C5833 612.8 5808.6 616.6 5780.2 616.6ZM6186.98 613V545.8L6183.98 533.2V418.6C6183.98 394.2 6176.78 375.4 6162.38 362.2C6148.38 348.6 6127.18 341.8 6098.78 341.8C6079.98 341.8 6061.58 345 6043.58 351.4C6025.58 357.4 6010.38 365.6 5997.98 376L5973.98 332.8C5990.38 319.6 6009.98 309.6 6032.78 302.8C6055.98 295.6 6080.18 292 6105.38 292C6148.98 292 6182.58 302.6 6206.18 323.8C6229.78 345 6241.58 377.4 6241.58 421V613H6186.98ZM6082.58 616.6C6058.98 616.6 6038.18 612.6 6020.18 604.6C6002.58 596.6 5988.98 585.6 5979.38 571.6C5969.78 557.2 5964.98 541 5964.98 523C5964.98 505.8 5968.98 490.2 5976.98 476.2C5985.38 462.2 5998.78 451 6017.18 442.6C6035.98 434.2 6061.18 430 6092.78 430H6193.58V471.4H6095.18C6066.38 471.4 6046.98 476.2 6036.98 485.8C6026.98 495.4 6021.98 507 6021.98 520.6C6021.98 536.2 6028.18 548.8 6040.58 558.4C6052.98 567.6 6070.18 572.2 6092.18 572.2C6113.78 572.2 6132.58 567.4 6148.58 557.8C6164.98 548.2 6176.78 534.2 6183.98 515.8L6195.38 555.4C6187.78 574.2 6174.38 589.2 6155.18 600.4C6135.98 611.2 6111.78 616.6 6082.58 616.6ZM6481.98 616.6C6454.78 616.6 6430.78 611.6 6409.98 601.6C6389.58 591.6 6373.58 576.4 6361.98 556C6350.78 535.2 6345.18 509.2 6345.18 478V295H6402.78V471.4C6402.78 502.6 6410.18 526 6424.98 541.6C6440.18 557.2 6461.38 565 6488.58 565C6508.58 565 6525.98 561 6540.78 553C6555.58 544.6 6566.98 532.6 6574.98 517C6582.98 501 6586.98 481.8 6586.98 459.4V295H6644.58V613H6589.98V527.2L6598.98 550C6588.58 571.2 6572.98 587.6 6552.18 599.2C6531.38 610.8 6507.98 616.6 6481.98 616.6ZM6754.23 613V295H6809.43V381.4L6804.03 359.8C6812.83 337.8 6827.63 321 6848.43 309.4C6869.23 297.8 6894.83 292 6925.23 292V347.8C6922.83 347.4 6920.43 347.2 6918.03 347.2C6916.03 347.2 6914.03 347.2 6912.03 347.2C6881.23 347.2 6856.83 356.4 6838.83 374.8C6820.83 393.2 6811.83 419.8 6811.83 454.6V613H6754.23ZM7134.13 616.6C7106.93 616.6 7082.93 611.6 7062.13 601.6C7041.73 591.6 7025.73 576.4 7014.13 556C7002.93 535.2 6997.33 509.2 6997.33 478V295H7054.93V471.4C7054.93 502.6 7062.33 526 7077.13 541.6C7092.33 557.2 7113.53 565 7140.73 565C7160.73 565 7178.13 561 7192.93 553C7207.73 544.6 7219.13 532.6 7227.13 517C7235.13 501 7239.13 481.8 7239.13 459.4V295H7296.73V613H7242.13V527.2L7251.13 550C7240.73 571.2 7225.13 587.6 7204.33 599.2C7183.53 610.8 7160.13 616.6 7134.13 616.6ZM7497.58 616.6C7471.18 616.6 7445.98 613 7421.98 605.8C7398.38 598.6 7379.78 589.8 7366.18 579.4L7390.18 533.8C7403.78 543 7420.58 550.8 7440.58 557.2C7460.58 563.6 7480.98 566.8 7501.78 566.8C7528.58 566.8 7547.78 563 7559.38 555.4C7571.38 547.8 7577.38 537.2 7577.38 523.6C7577.38 513.6 7573.78 505.8 7566.58 500.2C7559.38 494.6 7549.78 490.4 7537.78 487.6C7526.18 484.8 7513.18 482.4 7498.78 480.4C7484.38 478 7469.98 475.2 7455.58 472C7441.18 468.4 7427.98 463.6 7415.98 457.6C7403.98 451.2 7394.38 442.6 7387.18 431.8C7379.98 420.6 7376.38 405.8 7376.38 387.4C7376.38 368.2 7381.78 351.4 7392.58 337C7403.38 322.6 7418.58 311.6 7438.18 304C7458.18 296 7481.78 292 7508.98 292C7529.78 292 7550.78 294.6 7571.98 299.8C7593.58 304.6 7611.18 311.6 7624.78 320.8L7600.18 366.4C7585.78 356.8 7570.78 350.2 7555.18 346.6C7539.58 343 7523.98 341.2 7508.38 341.2C7483.18 341.2 7464.38 345.4 7451.98 353.8C7439.58 361.8 7433.38 372.2 7433.38 385C7433.38 395.8 7436.98 404.2 7444.18 410.2C7451.78 415.8 7461.38 420.2 7472.98 423.4C7484.98 426.6 7498.18 429.4 7512.58 431.8C7526.98 433.8 7541.38 436.6 7555.78 440.2C7570.18 443.4 7583.18 448 7594.78 454C7606.78 460 7616.38 468.4 7623.58 479.2C7631.18 490 7634.98 504.4 7634.98 522.4C7634.98 541.6 7629.38 558.2 7618.18 572.2C7606.98 586.2 7591.18 597.2 7570.78 605.2C7550.38 612.8 7525.98 616.6 7497.58 616.6ZM7720.77 616.6C7709.57 616.6 7699.97 612.8 7691.97 605.2C7683.97 597.2 7679.97 587.2 7679.97 575.2C7679.97 563.2 7683.97 553.4 7691.97 545.8C7699.97 538.2 7709.57 534.4 7720.77 534.4C7731.57 534.4 7740.77 538.2 7748.37 545.8C7756.37 553.4 7760.37 563.2 7760.37 575.2C7760.37 587.2 7756.37 597.2 7748.37 605.2C7740.77 612.8 7731.57 616.6 7720.77 616.6ZM7977.47 616.6C7943.47 616.6 7913.47 609.6 7887.47 595.6C7861.87 581.6 7841.87 562.4 7827.47 538C7813.47 513.6 7806.47 485.6 7806.47 454C7806.47 422.4 7813.27 394.4 7826.87 370C7840.87 345.6 7859.87 326.6 7883.87 313C7908.27 299 7935.67 292 7966.07 292C7996.87 292 8024.07 298.8 8047.67 312.4C8071.27 326 8089.67 345.2 8102.87 370C8116.47 394.4 8123.27 423 8123.27 455.8C8123.27 458.2 8123.07 461 8122.67 464.2C8122.67 467.4 8122.47 470.4 8122.07 473.2H7851.47V431.8H8092.07L8068.67 446.2C8069.07 425.8 8064.87 407.6 8056.07 391.6C8047.27 375.6 8035.07 363.2 8019.47 354.4C8004.27 345.2 7986.47 340.6 7966.07 340.6C7946.07 340.6 7928.27 345.2 7912.67 354.4C7897.07 363.2 7884.87 375.8 7876.07 392.2C7867.27 408.2 7862.87 426.6 7862.87 447.4V457C7862.87 478.2 7867.67 497.2 7877.27 514C7887.27 530.4 7901.07 543.2 7918.67 552.4C7936.27 561.6 7956.47 566.2 7979.27 566.2C7998.07 566.2 8015.07 563 8030.27 556.6C8045.87 550.2 8059.47 540.6 8071.07 527.8L8102.87 565C8088.47 581.8 8070.47 594.6 8048.87 603.4C8027.67 612.2 8003.87 616.6 7977.47 616.6ZM8203.26 613V167.8H8260.86V613H8203.26Z" fill="#100F0F"/>
<path d="M1067.4 552.4V289.6H1117.8V552.4H1067.4ZM958.2 445V397.6H1227V445H958.2Z" fill="#100F0F"/>
<path d="M0 425.685H211.533V851.37H0V425.685Z" fill="url(#paint6_linear_1_110)"/>
<path d="M352.664 70.7292H211.86V0H0V425.685C0 621.5 157.831 780.313 352.664 780.313C547.169 780.313 705 621.5 705 425.358C705 229.215 546.842 70.4018 352.664 70.4018V70.7292ZM352.664 567.471C274.731 567.471 211.86 503.618 211.86 425.358C211.86 347.097 274.731 283.244 352.664 283.244C430.269 283.244 493.467 346.77 493.467 425.03C493.467 503.291 430.269 566.816 352.664 566.816V567.471Z" fill="#0888FC"/>
<path d="M211.533 283.572V425.685C211.533 347.097 275.058 283.572 352.336 283.572H211.533Z" fill="#003FBE"/>
<path d="M493.467 425.685C493.467 504.273 430.269 567.798 352.664 567.798V780.641C547.169 780.641 705 621.5 705 425.685H493.467Z" fill="url(#paint7_linear_1_110)"/>
<path d="M352.664 71.0566V283.899C431.252 283.899 493.467 347.752 493.467 425.685H705C705 229.87 547.824 71.0566 352.664 71.0566Z" fill="url(#paint8_linear_1_110)"/>
<defs>
<filter id="filter0_dii_1_110" x="1479" y="6" width="844" height="853" filterUnits="userSpaceOnUse" color-interpolation-filters="sRGB">
<feFlood flood-opacity="0" result="BackgroundImageFix"/>
<feColorMatrix in="SourceAlpha" type="matrix" values="0 0 0 0 0 0 0 0 0 0 0 0 0 0 0 0 0 0 127 0" result="hardAlpha"/>
<feOffset dy="15"/>
<feGaussianBlur stdDeviation="5"/>
<feColorMatrix type="matrix" values="0 0 0 0 0 0 0 0 0 0 0 0 0 0 0 0 0 0 0.25 0"/>
<feBlend mode="normal" in2="BackgroundImageFix" result="effect1_dropShadow_1_110"/>
<feBlend mode="normal" in="SourceGraphic" in2="effect1_dropShadow_1_110" result="shape"/>
<feColorMatrix in="SourceAlpha" type="matrix" values="0 0 0 0 0 0 0 0 0 0 0 0 0 0 0 0 0 0 127 0" result="hardAlpha"/>
<feOffset dy="-7"/>
<feGaussianBlur stdDeviation="2"/>
<feComposite in2="hardAlpha" operator="arithmetic" k2="-1" k3="1"/>
<feColorMatrix type="matrix" values="0 0 0 0 0.633058 0 0 0 0 0.517292 0 0 0 0 0.782708 0 0 0 0.62 0"/>
<feBlend mode="normal" in2="shape" result="effect2_innerShadow_1_110"/>
<feColorMatrix in="SourceAlpha" type="matrix" values="0 0 0 0 0 0 0 0 0 0 0 0 0 0 0 0 0 0 127 0" result="hardAlpha"/>
<feOffset dy="6"/>
<feGaussianBlur stdDeviation="2"/>
<feComposite in2="hardAlpha" operator="arithmetic" k2="-1" k3="1"/>
<feColorMatrix type="matrix" values="0 0 0 0 0.890812 0 0 0 0 0.886111 0 0 0 0 0.947222 0 0 0 0.4 0"/>
<feBlend mode="normal" in2="effect2_innerShadow_1_110" result="effect3_innerShadow_1_110"/>
</filter>
<filter id="filter1_d_1_110" x="1618.5" y="113.501" width="521" height="617.999" filterUnits="userSpaceOnUse" color-interpolation-filters="sRGB">
<feFlood flood-opacity="0" result="BackgroundImageFix"/>
<feColorMatrix in="SourceAlpha" type="matrix" values="0 0 0 0 0 0 0 0 0 0 0 0 0 0 0 0 0 0 127 0" result="hardAlpha"/>
<feOffset dy="4"/>
<feGaussianBlur stdDeviation="2"/>
<feComposite in2="hardAlpha" operator="out"/>
<feColorMatrix type="matrix" values="0 0 0 0 0 0 0 0 0 0 0 0 0 0 0 0 0 0 0.25 0"/>
<feBlend mode="normal" in2="BackgroundImageFix" result="effect1_dropShadow_1_110"/>
<feBlend mode="normal" in="SourceGraphic" in2="effect1_dropShadow_1_110" result="shape"/>
</filter>
<filter id="filter2_i_1_110" x="1628.78" y="124" width="512.218" height="613.383" filterUnits="userSpaceOnUse" color-interpolation-filters="sRGB">
<feFlood flood-opacity="0" result="BackgroundImageFix"/>
<feBlend mode="normal" in="SourceGraphic" in2="BackgroundImageFix" result="shape"/>
<feColorMatrix in="SourceAlpha" type="matrix" values="0 0 0 0 0 0 0 0 0 0 0 0 0 0 0 0 0 0 127 0" result="hardAlpha"/>
<feOffset dy="6"/>
<feGaussianBlur stdDeviation="2"/>
<feComposite in2="hardAlpha" operator="arithmetic" k2="-1" k3="1"/>
<feColorMatrix type="matrix" values="0 0 0 0 0 0 0 0 0 0 0 0 0 0 0 0 0 0 0.25 0"/>
<feBlend mode="normal" in2="shape" result="effect1_innerShadow_1_110"/>
</filter>
<linearGradient id="paint0_linear_1_110" x1="1901" y1="53.5" x2="1901" y2="834" gradientUnits="userSpaceOnUse">
<stop stop-color="#8381C5"/>
<stop offset="1" stop-color="#5350AF"/>
</linearGradient>
<radialGradient id="paint1_radial_1_110" cx="0" cy="0" r="1" gradientUnits="userSpaceOnUse" gradientTransform="translate(2395.5 140.5) rotate(146.242) scale(1401.87 2046.01)">
<stop stop-color="#F98A8A" stop-opacity="0.78"/>
<stop offset="0.359375" stop-color="#FA9696" stop-opacity="0.564375"/>
<stop offset="1" stop-color="white" stop-opacity="0"/>
</radialGradient>
<radialGradient id="paint2_radial_1_110" cx="0" cy="0" r="1" gradientUnits="userSpaceOnUse" gradientTransform="translate(1901 -234) rotate(90) scale(1068 1068)">
<stop stop-color="#AFADDA"/>
<stop offset="0.860487" stop-color="#7E55B3" stop-opacity="0.996078"/>
</radialGradient>
<linearGradient id="paint3_linear_1_110" x1="1896.22" y1="129" x2="1896.22" y2="742" gradientUnits="userSpaceOnUse">
<stop offset="0.00978793" stop-color="#F0EFF8" stop-opacity="0.28"/>
<stop offset="1" stop-color="#F0EFF8" stop-opacity="0.1"/>
</linearGradient>
<linearGradient id="paint4_linear_1_110" x1="1884.11" y1="114" x2="1884.11" y2="726.614" gradientUnits="userSpaceOnUse">
<stop stop-color="#5653B0"/>
<stop offset="1" stop-color="#5653B0" stop-opacity="0.21"/>
</linearGradient>
<linearGradient id="paint5_linear_1_110" x1="1890" y1="124" x2="1890" y2="737" gradientUnits="userSpaceOnUse">
<stop stop-color="#F0EFF8"/>
<stop offset="1" stop-color="#E3E2F2"/>
</linearGradient>
<linearGradient id="paint6_linear_1_110" x1="24.8862" y1="860.539" x2="186.647" y2="416.516" gradientUnits="userSpaceOnUse">
<stop stop-color="#0888FC"/>
<stop offset="0.5" stop-color="#003FBE"/>
</linearGradient>
<linearGradient id="paint7_linear_1_110" x1="528.832" y1="780.641" x2="528.832" y2="425.685" gradientUnits="userSpaceOnUse">
<stop stop-color="#0888FC"/>
<stop offset="0.46" stop-color="#0888FC"/>
<stop offset="0.5" stop-color="#0888FC"/>
<stop offset="0.66" stop-color="#1085F8"/>
<stop offset="0.91" stop-color="#277CEC"/>
<stop offset="1" stop-color="#3278E6"/>
</linearGradient>
<linearGradient id="paint8_linear_1_110" x1="528.832" y1="425.685" x2="528.832" y2="71.0566" gradientUnits="userSpaceOnUse">
<stop stop-color="#3278E6"/>
<stop offset="1" stop-color="#003FBE"/>
</linearGradient>
<clipPath id="clip0_1_110">
<rect width="844" height="844" fill="white" transform="translate(1479 10)"/>
</clipPath>
</defs>
</svg>
